Coordinates
version=1
nRows=29
nColumns=24
inDegrees=yes

Units are S.I. units (second, meters, Newtons, ...)
Angles are in degrees.

endheader
time	pelvis_tilt	pelvis_list	pelvis_rotation	pelvis_tx	pelvis_ty	pelvis_tz	hip_flexion_r	hip_adduction_r	hip_rotation_r	knee_angle_r	ankle_angle_r	subtalar_angle_r	mtp_angle_r	hip_flexion_l	hip_adduction_l	hip_rotation_l	knee_angle_l	ankle_angle_l	subtalar_angle_l	mtp_angle_l	lumbar_extension	lumbar_bending	lumbar_rotation
      1.10350000	     -3.13137585	      3.99227192	     -1.86062303	      0.11911009	      1.06756390	      0.28516024	     24.09332449	     -4.13595300	     -2.28212662	    -65.54526734	     -5.27798927	    -14.70839581	      7.58753860	     12.87846765	      7.95560830	      1.91725621	    -10.35592927	     -1.85144066	    -12.03796462	      0.38823470	      3.46951818	     -0.44069011	      2.13980705
      1.10766667	     -3.15542396	      4.01184628	     -1.93203139	      0.12429007	      1.06801242	      0.28529530	     24.63873215	     -4.02110921	     -1.98603334	    -65.08282135	     -4.69618239	    -15.14163151	      7.51886008	     12.58906645	      7.97540632	      1.85437397	    -10.35105790	     -1.62668337	    -12.06647541	      0.34459815	      3.45823110	     -0.51516989	      2.15439313
      1.11183333	     -3.14716847	      4.03976173	     -2.03413630	      0.12951500	      1.06851667	      0.28531962	     25.12840692	     -3.91769189	     -1.65637914	    -64.52642364	     -4.19319692	    -15.51663873	      7.46834296	     12.23836237	      8.01524800	      1.86874542	    -10.28594082	     -1.42498597	    -12.08656757	      0.31468234	      3.46758155	     -0.49061589	      2.14659399
      1.11600000	     -3.14550431	      4.05716447	     -2.12500321	      0.13473802	      1.06901345	      0.28540443	     25.59783485	     -3.79423203	     -1.33644026	    -63.88590082	     -3.68375180	    -15.90753772	      7.41895530	     11.89650906	      8.03918729	      1.85187069	    -10.22647423	     -1.21545756	    -12.12528276	      0.28629184	      3.45510706	     -0.51408044	      2.14497716
      1.12016667	     -3.14303481	      4.06578951	     -2.21257298	      0.13997436	      1.06950213	      0.28550534	     26.03779789	     -3.65566301	     -1.01321079	    -63.16199151	     -3.21259684	    -16.30029855	      7.36509694	     11.54879187	      8.05285306	      1.82246309	    -10.16094054	     -1.01290270	    -12.15501592	      0.25618902	      3.44376043	     -0.52952256	      2.14478705
      1.12433333	     -3.13392099	      4.06986825	     -2.30419887	      0.14522410	      1.06999984	      0.28560161	     26.44389798	     -3.51068083	     -0.68667399	    -62.35468028	     -2.79318335	    -16.67852711	      7.31116677	     11.18579553	      8.06365034	      1.80771012	    -10.07983431	     -0.81902227	    -12.18114079	      0.22716517	      3.43095312	     -0.53635580	      2.14322661
      1.12850000	     -3.12050524	      4.07476284	     -2.39255300	      0.15047750	      1.07049234	      0.28571488	     26.81786812	     -3.36331057	     -0.35918195	    -61.47009027	     -2.40073788	    -17.07469544	      7.25099120	     10.81354460	      8.07518305	      1.78160374	     -9.98871484	     -0.62405310	    -12.20668660	      0.19559492	      3.40721123	     -0.54769324	      2.14215796
      1.13266667	     -3.11164846	      4.06832370	     -2.48158273	      0.15575634	      1.07097017	      0.28582263	     27.16525842	     -3.20236340	     -0.03083202	    -60.50318785	     -2.06232111	    -17.45550111	      7.19104161	     10.43794202	      8.07686388	      1.77197277	     -9.88399044	     -0.43879633	    -12.23461568	      0.16510612	      3.39241606	     -0.54792981	      2.13842435
      1.13683333	     -3.11039728	      4.07124202	     -2.56467514	      0.16106310	      1.07141318	      0.28594997	     27.49364349	     -3.05143748	      0.29770737	    -59.46958421	     -1.76411884	    -17.82625521	      7.13252063	     10.06233656	      8.08848797	      1.76824720	     -9.76792077	     -0.26274273	    -12.26671083	      0.13626525	      3.39209019	     -0.55508664	      2.13408904
      1.14100000	     -3.09748697	      4.06856018	     -2.64432966	      0.16637850	      1.07186111	      0.28608903	     27.77685282	     -2.89442937	      0.62131055	    -58.35777616	     -1.49812334	    -18.21740920	      7.06892777	      9.66854925	      8.09676166	      1.76286736	     -9.63958820	     -0.08395669	    -12.30631275	      0.10549568	      3.38608780	     -0.56467045	      2.12657883
      1.14516667	     -3.15995982	      4.06413935	     -2.67565054	      0.17158995	      1.07213800	      0.28620984	     28.12054982	     -2.74677452	      0.92965641	    -57.18713706	     -1.33661287	    -18.41437405	      7.03812949	      9.36977896	      8.10018012	      1.82964059	     -9.54041113	      0.00738968	    -12.32568659	      0.09148407	      3.30488847	     -0.59845674	      2.11654354
      1.14933333	     -3.09056148	      4.06448155	     -2.78389508	      0.17708344	      1.07267167	      0.28634707	     28.27345086	     -2.59384902	      1.25128680	    -55.92893371	     -1.08654441	    -18.93731279	      6.96170150	      8.87953777	      8.12181237	      1.77760680	     -9.34776343	      0.24151811	    -12.40817310	      0.05620180	      3.40730782	     -0.57389087	      2.09758089
      1.15350000	     -3.07974785	      4.06356292	     -2.85224055	      0.18243961	      1.07304681	      0.28652581	     28.47164732	     -2.44326260	      1.56362673	    -54.61541636	     -0.97252781	    -19.38381801	      6.88024565	      8.46739069	      8.13500341	      1.79071273	     -9.18336802	      0.40850867	    -12.45895836	      0.01774725	      3.38655439	     -0.59406447	      2.07690917
      1.15766667	     -2.96741594	      4.04803827	     -2.88217524	      0.18765249	      1.07355217	      0.28671798	     28.53220157	     -2.29803599	      1.82091603	    -53.21847835	     -1.15791363	    -20.22586856	      6.59783144	      7.95884210	      8.13839671	      1.81416123	     -9.03217073	      0.56362049	    -12.44728643	     -0.12603920	      3.09912306	     -0.63160628	      2.01525816
      1.16183333	     -3.01332374	      4.05801055	     -2.92606174	      0.19310904	      1.07379056	      0.28685738	     28.72790128	     -2.17635451	      2.11215037	    -51.78925762	     -1.02458863	    -20.36401575	      6.53939960	      7.59086242	      8.17001606	      1.85797058	     -8.84232587	      0.67944689	    -12.50502282	     -0.15521979	      3.20199553	     -0.64473110	      2.00081245
      1.16600000	     -3.04177553	      4.06821708	     -2.96751199	      0.19856849	      1.07402879	      0.28700539	     28.87553102	     -2.06026183	      2.38903821	    -50.29973513	     -0.93811190	    -20.60044600	      6.46905877	      7.19955286	      8.20293992	      1.89512387	     -8.64408325	      0.81672501	    -12.58984687	     -0.18998038	      3.27572951	     -0.66720403	      1.97456801
      1.17016667	     -3.05813838	      4.07365493	     -2.99500141	      0.20402049	      1.07426475	      0.28719422	     28.97822153	     -1.94455774	      2.65385635	    -48.74649426	     -0.91560130	    -20.87961417	      6.39227110	      6.79118042	      8.23030006	      1.95494892	     -8.44359623	      0.94751424	    -12.68278308	     -0.22827454	      3.34474994	     -0.70139095	      1.94049726
      1.17433333	     -2.98354863	      4.06345991	     -3.00828622	      0.20939695	      1.07461517	      0.28735865	     28.95644535	     -1.83374653	      2.86845789	    -47.12148020	     -1.18043661	    -21.53961806	      6.16530569	      6.28632294	      8.24855165	      2.01741076	     -8.23737136	      1.09752595	    -12.84946342	     -0.34816671	      3.14209571	     -0.62030053	      1.78575441
      1.17850000	     -3.04805352	      4.09920110	     -2.99975029	      0.21482557	      1.07468432	      0.28751889	     29.06781692	     -1.77368590	      3.08566809	    -45.49368526	     -1.13066985	    -21.62405688	      6.10806092	      5.93097941	      8.30985255	      2.10941140	     -8.03088977	      1.15329440	    -12.87747785	     -0.37863477	      3.26114778	     -0.78714362	      1.78808952
      1.18266667	     -2.98691903	      4.08212307	     -2.95855300	      0.22026477	      1.07498160	      0.28762502	     28.99393534	     -1.69476160	      3.21300986	    -43.76493352	     -1.42158740	    -22.11186519	      5.78068885	      5.42729053	      8.32661043	      2.24265653	     -7.80577431	      1.25543065	    -13.04918494	     -0.56443046	      3.14261529	     -0.79654160	      1.58999606
      1.18683333	     -3.07562234	      4.12852532	     -2.97153836	      0.22580971	      1.07496141	      0.28781818	     29.08054323	     -1.64691429	      3.41264403	    -42.06028146	     -1.36980442	    -22.12915646	      5.72586294	      5.07994565	      8.39882994	      2.30187597	     -7.56799940	      1.33511537	    -13.09495286	     -0.59517893	      3.29730919	     -0.90008535	      1.58507046
      1.19100000	     -3.14028616	      4.15820056	     -2.95431127	      0.23131238	      1.07494881	      0.28803267	     29.10890748	     -1.59954972	      3.58401516	    -40.29697307	     -1.41384389	    -22.16267630	      5.65769568	      4.71238371	      8.44951441	      2.37470076	     -7.35416852	      1.43888401	    -13.17813864	     -0.63432823	      3.43985394	     -0.95824898	      1.55520967
      1.19516667	     -3.19976555	      4.18250942	     -2.92157678	      0.23688854	      1.07494488	      0.28819778	     29.10119738	     -1.56551792	      3.68672126	    -38.49600299	     -1.50794494	    -22.19155986	      5.58533962	      4.32956527	      8.50097618	      2.46573860	     -7.12347153	      1.54094716	    -13.27147572	     -0.67734583	      3.55490531	     -1.01593277	      1.50959076
      1.19933333	     -3.17853381	      4.17407288	     -2.84301110	      0.24241728	      1.07505634	      0.28822957	     28.97209396	     -1.54310863	      3.70534611	    -36.63595191	     -1.81421959	    -22.26795050	      5.39612880	      3.85286231	      8.52796139	      2.67661371	     -6.88121570	      1.65313871	    -13.44233268	     -0.79775297	      3.45104402	     -0.91566735	      1.29824148
      1.20350000	     -3.28468730	      4.22185018	     -2.81295989	      0.24799324	      1.07488303	      0.28845901	     28.98892169	     -1.53416234	      3.75050807	    -34.82376370	     -1.78436316	    -22.22738932	      5.34629268	      3.52661143	      8.59484135	      2.72356219	     -6.65146401	      1.71041363	    -13.49629710	     -0.83051696	      3.57127230	     -1.13583370	      1.29551327
      1.20766667	     -3.32868645	      4.25229288	     -2.74272310	      0.25356239	      1.07480651	      0.28864103	     28.89750325	     -1.53887516	      3.77972143	    -32.95068052	     -1.89450921	    -22.08144909	      5.27293572	      3.13332107	      8.64667303	      2.82745703	     -6.44399891	      1.80325590	    -13.57695005	     -0.88081086	      3.75039831	     -1.19656468	      1.23531129
      1.21183333	     -3.42725004	      4.26947714	     -2.69575382	      0.25926315	      1.07462303	      0.28882111	     28.84910424	     -1.52484962	      3.72596026	    -31.07945813	     -1.97757011	    -21.89606415	      5.21312187	      2.78380405	      8.68097344	      2.92118920	     -6.20091016	      1.89463228	    -13.64751727	     -0.92377358	      3.84552405	     -1.28983939	      1.18150482
      1.21600000	     -3.41518012	      4.26159446	     -2.55216293	      0.26480955	      1.07461551	      0.28876816	     28.64648730	     -1.55637192	      3.59609881	    -29.16678810	     -2.18652633	    -21.46093294	      5.06201156	      2.32766249	      8.70578217	      3.18165036	     -6.00169474	      2.02056267	    -13.76280028	     -1.03989933	      3.79892031	     -1.14971687	      0.93956394
      1.22016667	     -3.43675271	      4.26679515	     -2.45343433	      0.27044148	      1.07450498	      0.28885261	     28.47519763	     -1.57327584	      3.44724277	    -27.28356775	     -2.20859109	    -21.01432126	      4.89335004	      1.90806459	      8.73172314	      3.34219908	     -5.79449375	      2.11296444	    -13.86116699	     -1.17738327	      3.84416711	     -1.21539315	      0.73325858
